<?xml version="1.0" standalone="no"?>
<!DOCTYPE svg PUBLIC "-//W3C//DTD SVG 20010904//EN"
 "http://www.w3.org/TR/2001/REC-SVG-20010904/DTD/svg10.dtd">
<svg version="1.0" xmlns="http://www.w3.org/2000/svg"
 width="840.000000pt" height="672.000000pt" viewBox="0 0 840.000000 672.000000"
 preserveAspectRatio="xMidYMid meet">

<g transform="translate(0.000000,672.000000) scale(0.100000,-0.100000)"
fill="#000000" stroke="none">
<path d="M3913 6304 c-18 -9 -43 -32 -54 -51 -12 -20 -40 -56 -62 -82 -56 -65
-105 -172 -127 -282 -22 -111 -49 -357 -53 -484 l-2 -90 -119 183 c-65 101
-149 216 -186 255 -137 147 -373 286 -483 287 -44 0 -96 -29 -114 -64 -20 -38
-37 -186 -37 -331 0 -87 4 -126 22 -184 28 -87 125 -312 188 -431 l45 -85 -88
94 c-174 186 -286 264 -423 296 -209 47 -253 55 -308 55 -79 0 -118 -29 -128
-95 -14 -97 58 -336 135 -443 l19 -27 -227 3 c-124 1 -245 7 -268 12 -95 22
-160 5 -189 -52 -41 -79 27 -230 178 -397 127 -142 189 -188 393 -296 91 -48
165 -88 163 -89 -2 -1 -115 1 -253 4 -137 3 -290 2 -338 -2 -102 -8 -206 -38
-262 -77 -73 -49 -104 -142 -72 -213 25 -56 271 -221 483 -323 175 -85 250
-110 372 -126 87 -11 147 -27 109 -28 -62 -3 -509 -174 -602 -231 -192 -117
-358 -251 -410 -332 -16 -26 -16 -30 -1 -54 26 -39 131 -102 215 -128 111 -35
218 -48 373 -44 89 2 134 0 130 -7 -3 -5 -18 -26 -33 -45 -15 -20 -50 -78 -78
-130 -29 -52 -58 -102 -67 -111 -8 -9 -17 -32 -21 -52 -7 -45 25 -80 88 -98
55 -15 317 -6 444 15 102 17 270 63 370 101 86 32 91 32 66 -7 -65 -99 -130
-252 -206 -488 -38 -115 -48 -164 -52 -237 -5 -81 -3 -97 17 -138 18 -38 32
-52 68 -67 71 -32 131 -22 216 36 38 26 70 45 72 43 2 -1 -3 -25 -11 -52 -38
-123 -1 -237 91 -286 46 -24 56 -25 118 -18 87 11 154 47 286 154 57 46 107
82 111 80 3 -3 9 -26 13 -52 9 -69 50 -178 81 -219 87 -113 212 -99 364 42 79
73 125 132 186 240 l43 75 4 -193 c4 -174 8 -202 32 -283 33 -110 97 -232 154
-296 70 -78 135 -78 213 2 46 47 112 155 139 229 19 50 24 53 56 37 43 -22
150 -47 200 -47 104 0 181 88 225 257 10 42 19 100 19 129 l0 53 48 -22 c36
-16 66 -22 130 -22 81 0 85 1 108 30 13 17 34 55 46 85 20 50 22 72 21 229 -1
96 1 179 4 183 2 5 24 -9 48 -31 54 -50 98 -72 205 -105 83 -25 282 -56 360
-56 35 0 43 5 70 42 36 49 60 125 60 187 -1 109 -52 262 -129 382 -22 35 -39
65 -37 66 1 2 49 -2 107 -7 115 -11 294 -5 349 12 51 15 95 51 115 94 14 29
16 54 13 116 -4 68 -11 90 -48 164 -28 56 -65 108 -109 154 -36 39 -64 70 -61
70 3 0 57 5 120 10 142 13 241 37 351 88 116 54 141 99 100 181 -34 66 -123
136 -260 205 -69 35 -170 86 -223 114 -88 45 -356 142 -393 142 -8 0 -15 5
-15 10 0 6 28 10 63 10 67 0 221 23 277 41 112 36 327 131 402 179 107 67 222
170 289 259 45 59 50 70 46 104 -12 92 -68 124 -240 138 -67 5 -153 15 -192
20 -38 6 -89 13 -112 16 l-41 5 81 62 c245 184 244 183 273 271 34 104 43 215
20 250 -25 39 -74 58 -166 65 -169 14 -319 -23 -549 -135 -73 -36 -137 -65
-142 -65 -5 0 27 48 72 108 94 125 161 257 249 494 50 132 61 170 51 181 -22
27 -171 50 -283 44 -117 -6 -205 -30 -318 -87 -87 -44 -258 -149 -312 -192
-21 -16 -38 -27 -38 -25 0 3 8 25 18 49 19 44 45 137 83 293 46 188 11 399
-86 513 -27 32 -31 33 -76 27 -26 -4 -82 -1 -124 5 -131 20 -142 15 -280 -124
-148 -150 -208 -223 -320 -397 -101 -157 -183 -321 -290 -584 -43 -104 -78
-191 -79 -192 0 -1 -1 47 -1 105 0 205 -47 691 -86 883 -42 214 -88 334 -164
438 -75 102 -162 141 -232 105z m114 -53 c17 -11 51 -44 74 -73 118 -149 183
-422 224 -948 26 -330 28 -392 16 -480 -13 -89 -90 -407 -115 -479 -9 -23 -25
-93 -35 -155 -18 -106 -43 -186 -58 -186 -15 0 -53 45 -53 63 0 45 -78 300
-214 695 -80 233 -155 460 -166 505 -31 116 -36 262 -16 459 27 259 66 389
145 480 21 24 47 60 60 80 37 62 80 74 138 39z m1433 -236 c30 0 61 -4 69 -9
36 -23 101 -227 101 -316 0 -46 -57 -293 -91 -395 -37 -109 -58 -147 -168
-295 -46 -63 -106 -150 -133 -193 -26 -43 -116 -162 -201 -265 -240 -294 -269
-330 -351 -444 -43 -60 -81 -108 -86 -108 -4 0 -22 -22 -39 -49 -19 -29 -45
-54 -64 -62 -51 -22 -125 -16 -187 13 -98 47 -94 37 -56 179 19 68 49 187 66
264 55 242 138 478 290 824 125 284 315 570 487 731 38 36 76 75 84 87 30 43
67 55 149 46 41 -4 100 -8 130 -8z m-2538 -49 c167 -59 369 -237 498 -439 41
-65 105 -161 142 -213 56 -80 74 -118 112 -228 24 -72 104 -304 176 -516 151
-439 180 -537 180 -600 0 -51 -35 -134 -69 -164 -25 -23 -76 -25 -96 -5 -16
17 -518 706 -556 764 -15 22 -52 69 -82 105 -284 334 -280 329 -385 566 -106
239 -117 278 -116 409 1 104 10 233 20 283 7 35 40 62 77 62 17 0 62 -11 99
-24z m3477 -538 c28 -6 51 -15 51 -19 0 -20 -116 -315 -159 -404 -45 -93 -203
-323 -299 -435 -21 -25 -65 -83 -97 -128 -122 -176 -418 -409 -881 -696 -140
-88 -189 -105 -256 -92 -18 3 -53 9 -78 12 -25 4 -51 11 -57 17 -20 15 -16
111 8 201 26 96 84 183 303 455 271 335 322 400 386 503 77 122 246 298 355
370 175 114 310 182 425 212 67 18 230 20 299 4z m-4139 -108 c307 -68 288
-56 614 -384 264 -266 349 -366 543 -637 331 -464 403 -570 403 -590 0 -29
-25 -79 -58 -117 l-27 -31 -175 116 c-96 64 -285 188 -419 276 -134 87 -276
184 -315 215 -117 92 -278 246 -400 380 -262 291 -346 425 -381 611 -20 101
-19 144 3 163 36 32 62 32 212 -2z m4584 -510 c89 -11 110 -30 108 -97 -1 -38
-44 -210 -54 -218 -2 -1 -59 -47 -128 -101 -151 -120 -294 -213 -403 -264 -74
-34 -330 -124 -827 -290 -196 -66 -491 -153 -497 -147 -2 3 61 46 139 98 259
169 537 376 636 472 24 23 74 87 112 143 38 55 86 116 108 136 41 37 279 157
424 214 87 34 210 62 278 63 19 0 66 -4 104 -9z m-4964 -28 c222 -7 249 -9
285 -29 49 -26 67 -45 94 -103 23 -48 227 -272 349 -383 113 -103 172 -145
439 -316 635 -404 662 -425 618 -461 -18 -15 -70 10 -154 74 -95 73 -164 113
-222 131 -31 9 -119 50 -195 91 -309 166 -369 188 -559 204 -243 20 -252 23
-440 122 -239 126 -292 165 -416 300 -151 165 -216 300 -174 364 16 24 20 25
73 20 31 -3 167 -10 302 -14z m4826 -632 c15 -6 94 -15 176 -20 82 -5 167 -15
189 -22 44 -13 79 -49 79 -81 0 -42 -143 -198 -255 -278 -112 -80 -360 -192
-496 -223 -159 -37 -523 -48 -684 -20 -126 21 -395 19 -662 -6 -120 -11 -227
-22 -239 -25 -13 -3 -28 3 -37 13 -14 15 -15 24 -5 56 14 43 52 66 111 66 66
0 474 114 752 210 107 37 406 122 489 140 34 7 127 46 220 93 88 44 178 86
201 93 50 16 125 17 161 4z m-4441 -200 c281 -14 427 -28 478 -46 23 -8 137
-64 252 -123 116 -60 236 -118 268 -130 85 -31 113 -47 207 -116 47 -34 104
-72 128 -84 45 -23 45 -24 36 -58 -6 -20 -13 -23 -63 -23 -31 0 -96 7 -146 16
-134 23 -416 2 -858 -66 -178 -28 -200 -29 -307 -19 -143 12 -220 25 -290 49
-84 29 -276 120 -376 178 -112 66 -277 187 -286 210 -4 9 -7 35 -7 56 -1 33 5
45 38 77 47 43 138 77 239 88 85 8 413 4 687 -9z m3336 -480 c156 -15 460 -68
576 -101 146 -41 291 -99 388 -155 44 -25 109 -58 145 -73 120 -50 251 -155
266 -215 11 -47 -6 -63 -124 -111 -101 -41 -168 -55 -350 -70 -169 -15 -175
-15 -355 10 -460 62 -1051 200 -1211 282 -17 9 -46 29 -65 46 -38 33 -89 57
-121 57 -28 0 -87 46 -106 82 -26 50 8 129 75 177 24 18 69 25 287 46 387 37
446 40 595 25z m-2149 -137 c105 -16 134 -31 110 -55 -5 -5 -65 -11 -133 -12
-149 -3 -240 -25 -414 -98 -337 -141 -662 -342 -984 -610 l-64 -53 -201 0
c-179 0 -210 3 -279 23 -111 32 -227 95 -227 123 0 36 212 211 376 310 125 75
485 208 718 264 179 44 748 118 946 124 25 1 93 -6 152 -16z m267 -176 c41
-34 82 -73 92 -87 41 -58 47 -50 -222 -290 -139 -124 -305 -268 -371 -321
-117 -94 -122 -97 -321 -179 -436 -179 -638 -229 -925 -230 -181 0 -222 23
-168 94 12 17 37 60 55 95 72 146 194 281 390 430 235 179 482 324 683 402
236 92 353 122 532 138 178 16 172 17 255 -52z m1074 -78 c12 -6 36 -24 52
-40 94 -88 447 -184 1155 -315 195 -36 370 -70 387 -75 45 -14 133 -115 177
-202 87 -172 60 -287 -74 -316 -104 -22 -364 -7 -512 29 -91 23 -150 51 -368
180 -281 165 -353 206 -410 235 -99 50 -226 144 -338 251 -61 57 -115 104
-121 104 -13 0 -61 81 -61 104 0 36 20 56 56 56 19 0 45 -5 57 -11z m-172
-146 c65 -32 160 -124 218 -212 23 -36 95 -129 159 -208 234 -288 261 -335
375 -653 l74 -205 -2 -205 c-2 -211 -7 -245 -47 -303 -18 -24 -25 -27 -81 -27
-101 0 -168 39 -305 173 -125 123 -154 164 -298 413 -122 211 -205 383 -249
517 -70 215 -143 617 -118 655 15 25 61 49 123 66 77 20 89 20 151 -11z m-717
-22 c3 -5 -27 -78 -68 -162 -40 -85 -120 -253 -177 -374 -167 -353 -267 -517
-447 -733 -106 -128 -158 -172 -310 -263 -59 -35 -139 -85 -179 -111 -57 -38
-81 -48 -113 -48 -89 0 -125 47 -122 158 2 79 7 98 84 326 89 269 190 456 266
495 20 10 93 42 162 71 99 42 144 67 215 124 94 74 266 223 448 388 60 54 125
107 145 118 39 20 87 26 96 11z m339 -60 c37 -41 67 -120 67 -177 0 -18 14
-92 31 -165 l30 -133 -16 -120 c-42 -307 -89 -520 -145 -660 -69 -172 -181
-399 -242 -490 -114 -169 -259 -276 -351 -259 -64 12 -113 100 -149 265 -45
207 -17 612 59 853 8 28 94 210 191 405 96 195 192 392 213 438 l38 82 119 0
120 0 35 -39z m807 -242 c30 -20 127 -77 215 -127 88 -49 234 -133 323 -186
189 -111 322 -180 371 -191 38 -8 68 -39 124 -129 63 -103 98 -207 104 -311 4
-84 3 -93 -24 -145 l-28 -55 -80 2 c-171 4 -354 52 -450 118 -72 49 -105 106
-184 317 -77 206 -139 335 -198 415 -21 29 -86 118 -145 198 -59 80 -102 143
-95 139 6 -4 37 -24 67 -45z m-605 -486 c28 -75 145 -306 225 -443 138 -236
177 -291 302 -416 l121 -122 -5 -88 c-9 -157 -69 -286 -149 -318 -37 -15 -47
-15 -93 -2 -28 7 -67 17 -87 20 -41 7 -110 62 -144 116 -12 20 -46 90 -74 155
-29 65 -63 137 -77 161 -50 85 -124 401 -124 528 0 34 7 86 15 116 19 70 55
274 55 311 0 43 15 35 35 -18z m-1035 -485 c-12 -89 -23 -226 -24 -302 l-2
-140 -100 -83 c-212 -179 -367 -207 -429 -77 -24 52 -16 152 18 227 21 45 35
62 73 84 141 83 201 139 423 401 30 34 56 61 58 58 3 -2 -5 -78 -17 -168z
m910 -198 c55 -205 91 -294 199 -503 50 -95 91 -180 91 -187 0 -36 -93 -202
-139 -249 -73 -75 -110 -71 -170 18 -124 183 -169 374 -151 643 7 101 15 136
55 255 60 173 65 187 69 182 2 -2 23 -74 46 -159z"/>
</g>
</svg>
